<svg xmlns="http://www.w3.org/2000/svg" viewBox="0 0 800 600" role="img" aria-label="Coffee menu image">
  <defs>
    <linearGradient id="g" x1="0" y1="0" x2="1" y2="1">
      <stop offset="0" stop-color="#f6e7cf"/>
      <stop offset="0.55" stop-color="#f1d3a2"/>
      <stop offset="1" stop-color="#c28a52"/>
    </linearGradient>
    <filter id="s" x="-20%" y="-20%" width="140%" height="140%">
      <feDropShadow dx="0" dy="10" stdDeviation="12" flood-color="#1f1a14" flood-opacity="0.18"/>
    </filter>
  </defs>
  <rect width="800" height="600" fill="url(#g)"/>
  <g opacity="0.15">
    <circle cx="130" cy="130" r="90" fill="#1f1a14"/>
    <circle cx="680" cy="120" r="110" fill="#1f1a14"/>
    <circle cx="720" cy="470" r="140" fill="#1f1a14"/>
  </g>
  <g filter="url(#s)" transform="translate(0,10)">
    <path d="M280 210c0-40 35-75 80-75h80c45 0 80 35 80 75v160c0 55-45 100-100 100h-40c-55 0-100-45-100-100V210z" fill="#fbf7f0"/>
    <path d="M320 165h160c18 0 33 15 33 33v142c0 44-36 80-80 80h-66c-44 0-80-36-80-80V198c0-18 15-33 33-33z" fill="#fff" opacity="0.95"/>
    <path d="M430 120c0 48-40 82-90 82h-40c0-48 34-88 82-88h48z" fill="#1f1a14" opacity="0.08"/>
    <path d="M290 180c0-52 42-94 94-94h62c52 0 94 42 94 94v20c0 12-10 22-22 22H312c-12 0-22-10-22-22v-20z" fill="#fbf7f0"/>
    <path d="M250 260c0-18 14-32 32-32h20v202c0 50-40 90-90 90h-10c-18 0-32-14-32-32s14-32 32-32h8c28 0 50-22 50-50V260z" fill="#fbf7f0" opacity="0.75"/>
    <path d="M565 245c45 0 82 37 82 82s-37 82-82 82h-25V245h25z" fill="#1f1a14" opacity="0.08"/>
  </g>
  <g transform="translate(0,0)">
    <text x="400" y="545" text-anchor="middle" font-family="Arial, Helvetica, sans-serif" font-size="44" font-weight="700" fill="#1f1a14" opacity="0.9">
      Brew & Bite
    </text>
    <text x="400" y="510" text-anchor="middle" font-family="Arial, Helvetica, sans-serif" font-size="22" font-weight="600" fill="#5b4b3f">
      Coffee
    </text>
  </g>
</svg>

