<svg xmlns="http://www.w3.org/2000/svg" viewBox="0 0 1600 700" role="img" aria-label="Coffee banner">
  <defs>
    <linearGradient id="bg" x1="0" y1="0" x2="1" y2="1">
      <stop offset="0" stop-color="#1f1a14" stop-opacity="0.95"/>
      <stop offset="0.45" stop-color="#7a4a2a" stop-opacity="0.55"/>
      <stop offset="1" stop-color="#c28a52" stop-opacity="0.65"/>
    </linearGradient>
    <radialGradient id="glow" cx="20%" cy="20%" r="70%">
      <stop offset="0" stop-color="#c28a52" stop-opacity="0.55"/>
      <stop offset="1" stop-color="#c28a52" stop-opacity="0"/>
    </radialGradient>
  </defs>
  <rect width="1600" height="700" fill="url(#bg)"/>
  <rect width="1600" height="700" fill="url(#glow)"/>

  <!-- coffee bean pattern -->
  <g opacity="0.25" fill="#fbf7f0">
    <ellipse cx="170" cy="540" rx="45" ry="30" />
    <ellipse cx="260" cy="510" rx="40" ry="28" />
    <ellipse cx="320" cy="585" rx="48" ry="32" />
    <ellipse cx="1360" cy="170" rx="46" ry="31" />
    <ellipse cx="1460" cy="240" rx="42" ry="28" />
    <ellipse cx="1320" cy="265" rx="50" ry="34" />
  </g>

  <!-- cup silhouette -->
  <g transform="translate(520,140)" opacity="0.95">
    <path d="M210 80h260l-45 300c-8 60-58 108-120 108s-112-48-120-108L210 80z" fill="#fbf7f0" opacity="0.85"/>
    <path d="M160 95c0-40 32-72 72-72h245c40 0 72 32 72 72v35H160V95z" fill="#fbf7f0" opacity="0.35"/>
    <rect x="150" y="145" width="360" height="95" rx="45" fill="#1f1a14" opacity="0.14"/>
    <path d="M420 165h60c55 0 100 45 100 100s-45 100-100 100h-60v-200z" fill="#fbf7f0" opacity="0.8"/>
    <path d="M415 205h55c33 0 60 27 60 60s-27 60-60 60h-55v-120z" fill="#1f1a14" opacity="0.12"/>
  </g>
</svg>

